<mxfile host="app.diagrams.net" modified="2021-12-17T09:31:52.796Z" agent="5.0 (Windows NT 10.0; WOW64) AppleWebKit/537.36 (KHTML, like Gecko) Chrome/96.0.4664.110 Safari/537.36" etag="EQI1b180TiAA3xvR6XaT" version="15.9.6" type="github">
  <diagram id="6a731a19-8d31-9384-78a2-239565b7b9f0" name="Page-1">
    <mxGraphModel dx="1422" dy="762" grid="1" gridSize="10" guides="1" tooltips="1" connect="1" arrows="1" fold="1" page="1" pageScale="1" pageWidth="1169" pageHeight="827" background="none" math="0" shadow="0">
      <root>
        <mxCell id="0" />
        <mxCell id="1" parent="0" />
        <mxCell id="kDrkMeq8tnJ4oxaY3LN9-143" value="Router1" style="ellipse;whiteSpace=wrap;html=1;aspect=fixed;" parent="1" vertex="1">
          <mxGeometry x="425" y="270" width="50" height="50" as="geometry" />
        </mxCell>
        <mxCell id="kDrkMeq8tnJ4oxaY3LN9-144" value="&lt;span&gt;Router4&lt;/span&gt;" style="ellipse;whiteSpace=wrap;html=1;aspect=fixed;" parent="1" vertex="1">
          <mxGeometry x="425" y="520" width="50" height="50" as="geometry" />
        </mxCell>
        <mxCell id="kDrkMeq8tnJ4oxaY3LN9-145" value="&lt;span&gt;Router3&lt;/span&gt;" style="ellipse;whiteSpace=wrap;html=1;aspect=fixed;" parent="1" vertex="1">
          <mxGeometry x="695" y="520" width="50" height="50" as="geometry" />
        </mxCell>
        <mxCell id="kDrkMeq8tnJ4oxaY3LN9-146" value="&lt;span&gt;Router2&lt;/span&gt;" style="ellipse;whiteSpace=wrap;html=1;aspect=fixed;" parent="1" vertex="1">
          <mxGeometry x="695" y="270" width="50" height="50" as="geometry" />
        </mxCell>
        <mxCell id="kDrkMeq8tnJ4oxaY3LN9-147" value="" style="endArrow=none;html=1;rounded=0;exitX=1;exitY=0.5;exitDx=0;exitDy=0;entryX=0;entryY=0.5;entryDx=0;entryDy=0;" parent="1" source="kDrkMeq8tnJ4oxaY3LN9-144" target="kDrkMeq8tnJ4oxaY3LN9-145" edge="1">
          <mxGeometry width="50" height="50" relative="1" as="geometry">
            <mxPoint x="615" y="450" as="sourcePoint" />
            <mxPoint x="665" y="400" as="targetPoint" />
          </mxGeometry>
        </mxCell>
        <mxCell id="kDrkMeq8tnJ4oxaY3LN9-148" value="" style="endArrow=none;html=1;rounded=0;exitX=1;exitY=0;exitDx=0;exitDy=0;entryX=0;entryY=1;entryDx=0;entryDy=0;" parent="1" source="kDrkMeq8tnJ4oxaY3LN9-144" target="kDrkMeq8tnJ4oxaY3LN9-146" edge="1">
          <mxGeometry width="50" height="50" relative="1" as="geometry">
            <mxPoint x="615" y="410" as="sourcePoint" />
            <mxPoint x="665" y="360" as="targetPoint" />
          </mxGeometry>
        </mxCell>
        <mxCell id="kDrkMeq8tnJ4oxaY3LN9-149" value="" style="endArrow=none;html=1;rounded=0;entryX=0.5;entryY=1;entryDx=0;entryDy=0;exitX=0.5;exitY=0;exitDx=0;exitDy=0;" parent="1" source="kDrkMeq8tnJ4oxaY3LN9-145" target="kDrkMeq8tnJ4oxaY3LN9-146" edge="1">
          <mxGeometry width="50" height="50" relative="1" as="geometry">
            <mxPoint x="615" y="410" as="sourcePoint" />
            <mxPoint x="665" y="360" as="targetPoint" />
          </mxGeometry>
        </mxCell>
        <mxCell id="kDrkMeq8tnJ4oxaY3LN9-150" value="" style="endArrow=none;html=1;rounded=0;entryX=0.5;entryY=1;entryDx=0;entryDy=0;exitX=0.5;exitY=0;exitDx=0;exitDy=0;" parent="1" source="kDrkMeq8tnJ4oxaY3LN9-144" target="kDrkMeq8tnJ4oxaY3LN9-143" edge="1">
          <mxGeometry width="50" height="50" relative="1" as="geometry">
            <mxPoint x="455" y="410" as="sourcePoint" />
            <mxPoint x="505" y="360" as="targetPoint" />
          </mxGeometry>
        </mxCell>
        <mxCell id="kDrkMeq8tnJ4oxaY3LN9-151" value="" style="endArrow=none;html=1;rounded=0;exitX=1;exitY=0.5;exitDx=0;exitDy=0;entryX=0;entryY=0.5;entryDx=0;entryDy=0;" parent="1" source="kDrkMeq8tnJ4oxaY3LN9-143" target="kDrkMeq8tnJ4oxaY3LN9-146" edge="1">
          <mxGeometry width="50" height="50" relative="1" as="geometry">
            <mxPoint x="615" y="410" as="sourcePoint" />
            <mxPoint x="665" y="360" as="targetPoint" />
          </mxGeometry>
        </mxCell>
        <mxCell id="kDrkMeq8tnJ4oxaY3LN9-152" value="" style="endArrow=none;html=1;rounded=0;exitX=1;exitY=1;exitDx=0;exitDy=0;entryX=0;entryY=0;entryDx=0;entryDy=0;" parent="1" source="kDrkMeq8tnJ4oxaY3LN9-143" target="kDrkMeq8tnJ4oxaY3LN9-145" edge="1">
          <mxGeometry width="50" height="50" relative="1" as="geometry">
            <mxPoint x="517.6776695296599" y="456.3223304703404" as="sourcePoint" />
            <mxPoint x="682.3223304703399" y="332.67766952965985" as="targetPoint" />
          </mxGeometry>
        </mxCell>
        <mxCell id="kDrkMeq8tnJ4oxaY3LN9-161" value="172.87.0.112/30" style="text;html=1;align=center;verticalAlign=middle;resizable=0;points=[];autosize=1;strokeColor=none;fillColor=none;" parent="1" vertex="1">
          <mxGeometry x="535" y="210" width="100" height="20" as="geometry" />
        </mxCell>
        <mxCell id="kDrkMeq8tnJ4oxaY3LN9-162" value="" style="endArrow=classic;html=1;rounded=0;strokeColor=#000000;labelBackgroundColor=#1A1A1A;exitX=0.517;exitY=1.154;exitDx=0;exitDy=0;exitPerimeter=0;" parent="1" source="kDrkMeq8tnJ4oxaY3LN9-172" edge="1">
          <mxGeometry width="50" height="50" relative="1" as="geometry">
            <mxPoint x="790" y="634" as="sourcePoint" />
            <mxPoint x="540" y="464" as="targetPoint" />
          </mxGeometry>
        </mxCell>
        <mxCell id="kDrkMeq8tnJ4oxaY3LN9-163" value="" style="endArrow=classic;html=1;rounded=0;strokeColor=#000000;labelBackgroundColor=#1A1A1A;exitX=0.515;exitY=1.22;exitDx=0;exitDy=0;exitPerimeter=0;" parent="1" source="kDrkMeq8tnJ4oxaY3LN9-161" edge="1">
          <mxGeometry width="50" height="50" relative="1" as="geometry">
            <mxPoint x="790" y="600" as="sourcePoint" />
            <mxPoint x="587" y="290" as="targetPoint" />
          </mxGeometry>
        </mxCell>
        <mxCell id="kDrkMeq8tnJ4oxaY3LN9-164" value="" style="endArrow=classic;startArrow=classic;html=1;rounded=0;strokeColor=#FFFFFF;fontColor=#1A1A1A;labelBackgroundColor=#1A1A1A;" parent="1" edge="1">
          <mxGeometry width="50" height="50" relative="1" as="geometry">
            <mxPoint x="630" y="710" as="sourcePoint" />
            <mxPoint x="640" y="570" as="targetPoint" />
          </mxGeometry>
        </mxCell>
        <mxCell id="kDrkMeq8tnJ4oxaY3LN9-165" value="172.87.0.113/30" style="text;html=1;align=center;verticalAlign=middle;resizable=0;points=[];autosize=1;strokeColor=none;fillColor=none;fontColor=#1A1A1A;" parent="1" vertex="1">
          <mxGeometry x="470" y="280" width="100" height="20" as="geometry" />
        </mxCell>
        <mxCell id="kDrkMeq8tnJ4oxaY3LN9-166" value="172.87.0.114/30" style="text;html=1;align=center;verticalAlign=middle;resizable=0;points=[];autosize=1;strokeColor=none;fillColor=none;fontColor=#1A1A1A;" parent="1" vertex="1">
          <mxGeometry x="595" y="280" width="100" height="20" as="geometry" />
        </mxCell>
        <mxCell id="kDrkMeq8tnJ4oxaY3LN9-167" value="172.87.0.161/30" style="text;html=1;align=center;verticalAlign=middle;resizable=0;points=[];autosize=1;" parent="1" vertex="1">
          <mxGeometry x="470" y="310" width="100" height="20" as="geometry" />
        </mxCell>
        <mxCell id="kDrkMeq8tnJ4oxaY3LN9-168" value="172.87.0.165/30" style="text;html=1;align=center;verticalAlign=middle;resizable=0;points=[];autosize=1;strokeColor=none;fillColor=none;fontColor=#1A1A1A;" parent="1" vertex="1">
          <mxGeometry x="600" y="310" width="100" height="20" as="geometry" />
        </mxCell>
        <mxCell id="kDrkMeq8tnJ4oxaY3LN9-169" value="172.87.0.161/30" style="text;html=1;align=center;verticalAlign=middle;resizable=0;points=[];autosize=1;strokeColor=none;fillColor=none;fontColor=#1A1A1A;" parent="1" vertex="1">
          <mxGeometry x="600" y="510" width="100" height="20" as="geometry" />
        </mxCell>
        <mxCell id="kDrkMeq8tnJ4oxaY3LN9-170" value="172.87.0.166/30" style="text;html=1;align=center;verticalAlign=middle;resizable=0;points=[];autosize=1;strokeColor=none;fillColor=none;fontColor=#1A1A1A;" parent="1" vertex="1">
          <mxGeometry x="470" y="510" width="100" height="20" as="geometry" />
        </mxCell>
        <mxCell id="kDrkMeq8tnJ4oxaY3LN9-171" value="172.87.0.160/30" style="text;html=1;align=center;verticalAlign=middle;resizable=0;points=[];autosize=1;" parent="1" vertex="1">
          <mxGeometry x="610" y="414" width="100" height="20" as="geometry" />
        </mxCell>
        <mxCell id="kDrkMeq8tnJ4oxaY3LN9-172" value="172.87.0.164/30" style="text;html=1;align=center;verticalAlign=middle;resizable=0;points=[];autosize=1;" parent="1" vertex="1">
          <mxGeometry x="460" y="414" width="100" height="20" as="geometry" />
        </mxCell>
        <mxCell id="kDrkMeq8tnJ4oxaY3LN9-173" value="" style="endArrow=classic;html=1;rounded=0;strokeColor=#000000;labelBackgroundColor=#1A1A1A;exitX=0.521;exitY=1.154;exitDx=0;exitDy=0;exitPerimeter=0;" parent="1" source="kDrkMeq8tnJ4oxaY3LN9-171" edge="1">
          <mxGeometry width="50" height="50" relative="1" as="geometry">
            <mxPoint x="521.7" y="447.0799999999999" as="sourcePoint" />
            <mxPoint x="630" y="464" as="targetPoint" />
          </mxGeometry>
        </mxCell>
        <mxCell id="kDrkMeq8tnJ4oxaY3LN9-174" value="172.87.0.118/30" style="text;html=1;align=center;verticalAlign=middle;resizable=0;points=[];autosize=1;strokeColor=none;fillColor=none;fontColor=#1A1A1A;rotation=90;" parent="1" vertex="1">
          <mxGeometry x="680" y="470" width="100" height="20" as="geometry" />
        </mxCell>
        <mxCell id="kDrkMeq8tnJ4oxaY3LN9-175" value="172.87.0.117/30" style="text;html=1;align=center;verticalAlign=middle;resizable=0;points=[];autosize=1;strokeColor=none;fillColor=none;fontColor=#1A1A1A;rotation=90;" parent="1" vertex="1">
          <mxGeometry x="680" y="350" width="100" height="20" as="geometry" />
        </mxCell>
        <mxCell id="kDrkMeq8tnJ4oxaY3LN9-176" value="172.87.0.121/30" style="text;html=1;align=center;verticalAlign=middle;resizable=0;points=[];autosize=1;strokeColor=none;fillColor=none;fontColor=#1A1A1A;" parent="1" vertex="1">
          <mxGeometry x="600" y="540" width="100" height="20" as="geometry" />
        </mxCell>
        <mxCell id="kDrkMeq8tnJ4oxaY3LN9-177" value="172.87.0.122/30" style="text;html=1;align=center;verticalAlign=middle;resizable=0;points=[];autosize=1;strokeColor=none;fillColor=none;fontColor=#1A1A1A;" parent="1" vertex="1">
          <mxGeometry x="470" y="540" width="100" height="20" as="geometry" />
        </mxCell>
        <mxCell id="kDrkMeq8tnJ4oxaY3LN9-180" value="172.87.0.126/30" style="text;html=1;align=center;verticalAlign=middle;resizable=0;points=[];autosize=1;strokeColor=none;fillColor=none;fontColor=#1A1A1A;rotation=270;" parent="1" vertex="1">
          <mxGeometry x="390" y="350" width="100" height="20" as="geometry" />
        </mxCell>
        <mxCell id="kDrkMeq8tnJ4oxaY3LN9-182" value="172.87.0.125/30" style="text;html=1;align=center;verticalAlign=middle;resizable=0;points=[];autosize=1;strokeColor=none;fillColor=none;fontColor=#1A1A1A;rotation=270;" parent="1" vertex="1">
          <mxGeometry x="390" y="470" width="100" height="20" as="geometry" />
        </mxCell>
        <mxCell id="kDrkMeq8tnJ4oxaY3LN9-183" value="172.87.0.116/30" style="text;html=1;align=center;verticalAlign=middle;resizable=0;points=[];autosize=1;strokeColor=none;fillColor=none;rotation=90;" parent="1" vertex="1">
          <mxGeometry x="760.92" y="414" width="100" height="20" as="geometry" />
        </mxCell>
        <mxCell id="kDrkMeq8tnJ4oxaY3LN9-184" value="" style="endArrow=classic;html=1;rounded=0;strokeColor=#000000;labelBackgroundColor=#1A1A1A;exitX=0.515;exitY=1.22;exitDx=0;exitDy=0;exitPerimeter=0;entryX=-0.034;entryY=0.546;entryDx=0;entryDy=0;entryPerimeter=0;" parent="1" source="kDrkMeq8tnJ4oxaY3LN9-183" edge="1">
          <mxGeometry width="50" height="50" relative="1" as="geometry">
            <mxPoint x="790.92" y="610" as="sourcePoint" />
            <mxPoint x="719.9999999999999" y="426.60000000000014" as="targetPoint" />
          </mxGeometry>
        </mxCell>
        <mxCell id="kDrkMeq8tnJ4oxaY3LN9-185" value="172.87.0.120/30" style="text;html=1;align=center;verticalAlign=middle;resizable=0;points=[];autosize=1;strokeColor=none;fillColor=none;" parent="1" vertex="1">
          <mxGeometry x="535" y="610" width="100" height="20" as="geometry" />
        </mxCell>
        <mxCell id="kDrkMeq8tnJ4oxaY3LN9-186" value="" style="endArrow=classic;html=1;rounded=0;strokeColor=#000000;labelBackgroundColor=#1A1A1A;exitX=0.515;exitY=0.089;exitDx=0;exitDy=0;exitPerimeter=0;" parent="1" source="kDrkMeq8tnJ4oxaY3LN9-185" edge="1">
          <mxGeometry width="50" height="50" relative="1" as="geometry">
            <mxPoint x="790" y="1000" as="sourcePoint" />
            <mxPoint x="587" y="550" as="targetPoint" />
          </mxGeometry>
        </mxCell>
        <mxCell id="kDrkMeq8tnJ4oxaY3LN9-187" value="172.87.0.124/30" style="text;html=1;align=center;verticalAlign=middle;resizable=0;points=[];autosize=1;strokeColor=none;fillColor=none;rotation=270;" parent="1" vertex="1">
          <mxGeometry x="310" y="414" width="100" height="20" as="geometry" />
        </mxCell>
        <mxCell id="kDrkMeq8tnJ4oxaY3LN9-188" value="" style="endArrow=classic;html=1;rounded=0;strokeColor=#000000;labelBackgroundColor=#1A1A1A;exitX=0.515;exitY=1.22;exitDx=0;exitDy=0;exitPerimeter=0;entryX=-0.034;entryY=0.546;entryDx=0;entryDy=0;entryPerimeter=0;" parent="1" source="kDrkMeq8tnJ4oxaY3LN9-187" edge="1">
          <mxGeometry width="50" height="50" relative="1" as="geometry">
            <mxPoint x="514.92" y="609.5" as="sourcePoint" />
            <mxPoint x="444" y="426.10000000000014" as="targetPoint" />
          </mxGeometry>
        </mxCell>
      </root>
    </mxGraphModel>
  </diagram>
</mxfile>
